<svg width="32" height="32" viewBox="0 0 32 32" fill="none" xmlns="http://www.w3.org/2000/svg">
<rect width="32" height="32" rx="16" fill="#E22026"/>
<path d="M8.792 15.864C8.632 15.864 8.552 15.792 8.552 15.648V14.664C8.552 14.504 8.632 14.424 8.792 14.424H14.672C14.832 14.424 14.912 14.504 14.912 14.664V15.648C14.912 15.792 14.832 15.864 14.672 15.864H8.792ZM11.864 21.216C11.864 21.696 11.968 22.072 12.176 22.344C12.384 22.616 12.704 22.752 13.136 22.752C13.424 22.752 13.696 22.72 13.952 22.656C14.208 22.576 14.44 22.488 14.648 22.392C14.824 22.296 14.952 22.344 15.032 22.536L15.344 23.352C15.392 23.432 15.408 23.504 15.392 23.568C15.376 23.616 15.328 23.664 15.248 23.712C14.928 23.888 14.56 24.016 14.144 24.096C13.744 24.192 13.328 24.24 12.896 24.24C11.968 24.24 11.272 24.008 10.808 23.544C10.344 23.064 10.112 22.336 10.112 21.36V11.856C10.112 11.696 10.192 11.616 10.352 11.616H11.624C11.784 11.616 11.864 11.696 11.864 11.856V21.216ZM18.011 10.608C18.011 9.552 18.235 8.76 18.683 8.232C19.131 7.704 19.843 7.44 20.819 7.44C21.347 7.44 21.835 7.504 22.283 7.632C22.747 7.744 23.147 7.896 23.483 8.088C23.659 8.2 23.707 8.336 23.627 8.496L23.267 9.288C23.219 9.384 23.163 9.448 23.099 9.48C23.051 9.512 22.979 9.496 22.883 9.432C22.627 9.304 22.339 9.192 22.019 9.096C21.715 8.984 21.387 8.928 21.035 8.928C20.491 8.928 20.139 9.08 19.979 9.384C19.835 9.672 19.763 10.072 19.763 10.584V23.76C19.763 23.92 19.683 24 19.523 24H18.251C18.091 24 18.011 23.92 18.011 23.76V10.608ZM16.691 15.864C16.531 15.864 16.451 15.792 16.451 15.648V14.664C16.451 14.504 16.531 14.424 16.691 14.424H22.331C22.491 14.424 22.571 14.504 22.571 14.664V15.648C22.571 15.792 22.491 15.864 22.331 15.864H16.691Z" fill="white"/>
</svg>
