<svg width="46" height="56" viewBox="0 0 46 56" fill="none" xmlns="http://www.w3.org/2000/svg">
<mask id="path-1-outside-1_2068_148" maskUnits="userSpaceOnUse" x="0" y="0" width="46" height="56" fill="black">
<rect fill="white" width="46" height="56"/>
<path d="M20.7193 7.515C23.0513 7.886 22.0443 10.43 22.2033 12.868C22.4153 15.465 23.2103 16.737 22.8923 20.182C22.5743 23.68 20.1893 26.436 19.7123 28.98C19.3413 31.047 19.9773 32.743 19.9773 34.916C19.9773 36.347 19.1293 38.361 19.1293 39.898C19.1293 42.23 20.5073 43.29 23.1573 43.29C25.9133 43.29 27.7153 41.647 27.7153 39.05C27.7153 37.725 27.3443 36.347 27.5563 35.181C27.8743 33.591 28.9873 32.743 29.2523 30.676C29.5703 28.238 27.8743 25.694 28.5103 22.461C29.0933 19.387 32.4323 17.055 32.0613 15.571C31.6373 13.928 28.2983 15.147 28.0333 13.239C27.8213 11.702 30.6833 11.119 32.0613 9.953C33.4393 8.787 33.5453 6.879 34.9763 6.932C36.0893 6.985 36.8313 8.893 36.5663 12.073C36.2483 16.525 33.8103 20.235 33.4923 23.256C33.1743 26.224 33.8633 28.238 33.5453 30.835C33.3333 32.531 31.9553 35.976 31.9553 38.52C31.9553 39.739 32.5383 41.541 33.7573 41.541C34.7643 41.541 35.8243 40.11 37.2023 40.11C38.4743 40.11 39.4283 41.382 39.4283 42.813C39.4283 44.403 38.3153 46.205 35.2943 46.841C31.3723 47.689 27.3443 46.735 24.1113 46.735C20.5603 46.735 19.3943 48.484 17.5393 48.749C15.8433 49.014 14.5713 48.325 13.1403 48.484C11.7623 48.59 11.1793 49.544 9.64235 49.544C8.15835 49.544 7.15135 48.537 7.15135 47.212C7.15135 45.198 9.21835 44.456 11.4973 44.456C14.2003 44.456 15.4193 43.237 15.4193 40.746C15.4193 38.096 14.6243 34.969 14.6243 32.425C14.6243 28.715 16.9563 27.231 17.3273 24.899C17.5923 23.256 16.9563 22.037 17.0093 20.712C17.0623 19.069 19.0763 16.896 18.1223 16.048C17.3273 15.306 16.1083 17.267 14.4653 17.479C12.6103 17.744 11.8153 15.624 13.0873 14.087C14.1473 12.762 16.2673 12.868 17.3803 11.119C18.3343 9.635 18.8113 7.197 20.7193 7.515Z"/>
</mask>
<path d="M20.7193 7.515C23.0513 7.886 22.0443 10.43 22.2033 12.868C22.4153 15.465 23.2103 16.737 22.8923 20.182C22.5743 23.68 20.1893 26.436 19.7123 28.98C19.3413 31.047 19.9773 32.743 19.9773 34.916C19.9773 36.347 19.1293 38.361 19.1293 39.898C19.1293 42.23 20.5073 43.29 23.1573 43.29C25.9133 43.29 27.7153 41.647 27.7153 39.05C27.7153 37.725 27.3443 36.347 27.5563 35.181C27.8743 33.591 28.9873 32.743 29.2523 30.676C29.5703 28.238 27.8743 25.694 28.5103 22.461C29.0933 19.387 32.4323 17.055 32.0613 15.571C31.6373 13.928 28.2983 15.147 28.0333 13.239C27.8213 11.702 30.6833 11.119 32.0613 9.953C33.4393 8.787 33.5453 6.879 34.9763 6.932C36.0893 6.985 36.8313 8.893 36.5663 12.073C36.2483 16.525 33.8103 20.235 33.4923 23.256C33.1743 26.224 33.8633 28.238 33.5453 30.835C33.3333 32.531 31.9553 35.976 31.9553 38.52C31.9553 39.739 32.5383 41.541 33.7573 41.541C34.7643 41.541 35.8243 40.11 37.2023 40.11C38.4743 40.11 39.4283 41.382 39.4283 42.813C39.4283 44.403 38.3153 46.205 35.2943 46.841C31.3723 47.689 27.3443 46.735 24.1113 46.735C20.5603 46.735 19.3943 48.484 17.5393 48.749C15.8433 49.014 14.5713 48.325 13.1403 48.484C11.7623 48.59 11.1793 49.544 9.64235 49.544C8.15835 49.544 7.15135 48.537 7.15135 47.212C7.15135 45.198 9.21835 44.456 11.4973 44.456C14.2003 44.456 15.4193 43.237 15.4193 40.746C15.4193 38.096 14.6243 34.969 14.6243 32.425C14.6243 28.715 16.9563 27.231 17.3273 24.899C17.5923 23.256 16.9563 22.037 17.0093 20.712C17.0623 19.069 19.0763 16.896 18.1223 16.048C17.3273 15.306 16.1083 17.267 14.4653 17.479C12.6103 17.744 11.8153 15.624 13.0873 14.087C14.1473 12.762 16.2673 12.868 17.3803 11.119C18.3343 9.635 18.8113 7.197 20.7193 7.515Z" fill="white"/>
<path d="M20.7193 7.515L19.7028 13.6142L19.7253 13.618L19.7478 13.6215L20.7193 7.515ZM22.2033 12.868L16.0331 13.2704L16.0364 13.3208L16.0405 13.3711L22.2033 12.868ZM22.8923 20.182L16.7352 19.6136L16.7344 19.6222L22.8923 20.182ZM19.7123 28.98L13.6349 27.8405L13.6305 27.864L13.6263 27.8876L19.7123 28.98ZM27.5563 35.181L21.4931 33.9683L21.4825 34.0215L21.4727 34.0749L27.5563 35.181ZM29.2523 30.676L23.1209 29.8762L23.1192 29.8897L29.2523 30.676ZM28.5103 22.461L34.5774 23.6545L34.5815 23.6339L34.5854 23.6132L28.5103 22.461ZM32.0613 15.571L38.0601 14.0713L38.0544 14.0486L38.0485 14.0259L32.0613 15.571ZM28.0333 13.239L21.908 14.0839L21.9088 14.0896L28.0333 13.239ZM32.0613 9.953L28.0673 5.23272L28.0673 5.23273L32.0613 9.953ZM34.9763 6.932L35.2705 0.755666L35.2378 0.754112L35.2052 0.752904L34.9763 6.932ZM36.5663 12.073L30.4044 11.5595L30.4013 11.596L30.3987 11.6325L36.5663 12.073ZM33.4923 23.256L39.6405 23.9147L39.6417 23.9033L33.4923 23.256ZM33.5453 30.835L39.6809 31.602L39.6819 31.5942L39.6828 31.5865L33.5453 30.835ZM35.2943 46.841L34.0205 40.7903L34.004 40.7938L33.9876 40.7973L35.2943 46.841ZM17.5393 48.749L16.6649 42.6278L16.6248 42.6335L16.5848 42.6398L17.5393 48.749ZM13.1403 48.484L13.6146 54.6491L13.719 54.6411L13.8232 54.6295L13.1403 48.484ZM17.3273 24.899L11.2229 23.9144L11.2208 23.9275L17.3273 24.899ZM17.0093 20.712L23.1877 20.9591L23.1887 20.9353L23.1895 20.9114L17.0093 20.712ZM18.1223 16.048L13.9033 20.5684L13.9582 20.6196L14.0144 20.6695L18.1223 16.048ZM14.4653 17.479L13.6741 11.3465L13.6324 11.3519L13.5909 11.3578L14.4653 17.479ZM13.0873 14.087L17.851 18.0293L17.8837 17.9898L17.9157 17.9497L13.0873 14.087ZM17.3803 11.119L12.1791 7.77531L12.1714 7.7873L12.1637 7.79932L17.3803 11.119ZM20.7193 7.515L19.7478 13.6215C19.4696 13.5773 18.9843 13.4601 18.4229 13.1454C17.8338 12.8152 17.3022 12.3458 16.8897 11.771C16.4945 11.2206 16.3023 10.7055 16.209 10.3658C16.1196 10.04 16.106 9.82057 16.1041 9.78919C16.102 9.75451 16.1063 9.79547 16.0998 9.97013C16.0929 10.1538 16.0805 10.3482 16.0603 10.6809C16.026 11.2464 15.9648 12.2236 16.0331 13.2704L22.2033 12.868L28.3736 12.4656C28.3623 12.2934 28.3674 12.0383 28.4043 11.4296C28.4307 10.9941 28.506 9.99826 28.4483 9.04356C28.391 8.0952 28.173 6.28268 26.9357 4.55913C25.5288 2.5994 23.5138 1.69849 21.6908 1.40846L20.7193 7.515ZM22.2033 12.868L16.0405 13.3711C16.1756 15.0264 16.5652 16.7486 16.6536 17.2601C16.7641 17.8992 16.8356 18.5256 16.7352 19.6136L22.8923 20.182L29.0495 20.7504C29.2671 18.3934 29.1001 16.6613 28.8396 15.1539C28.557 13.5189 28.443 13.3066 28.3662 12.3649L22.2033 12.868ZM22.8923 20.182L16.7344 19.6222C16.6834 20.1836 16.4494 20.8889 15.7911 22.2556C15.5282 22.8014 15.0583 23.7345 14.7076 24.5302C14.3325 25.3813 13.881 26.5281 13.6349 27.8405L19.7123 28.98L25.7898 30.1195C25.7822 30.1599 25.8077 30.0082 26.0239 29.5177C26.2645 28.9718 26.5001 28.5203 26.9328 27.6219C27.6658 26.1001 28.7833 23.6784 29.0503 20.7418L22.8923 20.182ZM19.7123 28.98L13.6263 27.8876C13.2764 29.8367 13.4322 31.5077 13.565 32.6332C13.7167 33.918 13.794 34.308 13.794 34.916H19.9773H26.1607C26.1607 33.351 25.92 31.8065 25.8464 31.1833C25.754 30.4008 25.7772 30.1903 25.7984 30.0724L19.7123 28.98ZM19.9773 34.916H13.794C13.794 34.712 13.8194 34.6716 13.7724 34.9161C13.7267 35.1542 13.6601 35.4317 13.5441 35.9105C13.4432 36.3264 13.2975 36.9249 13.1828 37.5414C13.0688 38.1545 12.946 38.9823 12.946 39.898H19.1293H25.3127C25.3127 40.0452 25.2959 40.0449 25.3409 39.8034C25.3852 39.5652 25.4514 39.2826 25.5626 38.824C25.6585 38.4283 25.804 37.838 25.9173 37.2479C26.0293 36.6643 26.1607 35.8355 26.1607 34.916H19.9773ZM19.1293 39.898H12.946C12.946 42.319 13.7149 45.1796 16.2188 47.2416C18.4825 49.1059 21.178 49.4733 23.1573 49.4733V43.29V37.1067C22.4867 37.1067 23.1681 36.9441 24.0804 37.6954C24.5749 38.1026 24.928 38.6164 25.1287 39.1192C25.3126 39.58 25.3127 39.887 25.3127 39.898H19.1293ZM23.1573 43.29V49.4733C25.7507 49.4733 28.5028 48.6864 30.6686 46.6831C32.8863 44.6317 33.8987 41.8451 33.8987 39.05H27.7153H21.532C21.532 38.9811 21.5452 38.767 21.6662 38.4708C21.7904 38.1665 21.9949 37.8602 22.2711 37.6047C22.8468 37.0721 23.3199 37.1067 23.1573 37.1067V43.29ZM27.7153 39.05H33.8987C33.8987 38.443 33.8566 37.8929 33.8167 37.47C33.7966 37.2564 33.7747 37.0525 33.7564 36.8837C33.7367 36.7025 33.722 36.5689 33.7084 36.4345C33.6811 36.1641 33.6751 36.045 33.6743 35.9932C33.6736 35.9463 33.6801 36.0664 33.6399 36.2871L27.5563 35.181L21.4727 34.0749C21.1968 35.5924 21.3353 36.9942 21.4043 37.6773C21.5016 38.6408 21.532 38.7992 21.532 39.05H27.7153ZM27.5563 35.181L33.6196 36.3937C33.5631 36.6761 33.3774 36.9755 33.8995 35.9805C34.3709 35.0821 35.1137 33.5821 35.3855 31.4623L29.2523 30.676L23.1192 29.8897C23.1177 29.9015 23.1174 29.8994 23.1202 29.8884C23.1229 29.8775 23.1251 29.872 23.1232 29.8772C23.1154 29.8983 23.0869 29.9713 22.949 30.2342C22.7688 30.5775 21.8676 32.0959 21.4931 33.9683L27.5563 35.181ZM29.2523 30.676L35.3837 31.4757C35.5711 30.0394 35.4391 28.7637 35.2818 27.8111C35.1379 26.9395 34.901 25.9788 34.7925 25.5001C34.5172 24.2849 34.525 23.9211 34.5774 23.6545L28.5103 22.461L22.4433 21.2675C21.8597 24.2339 22.3975 26.7586 22.7316 28.2331C22.9279 29.0993 23.0157 29.4338 23.0804 29.826C23.1318 30.1371 23.0926 30.0936 23.1209 29.8763L29.2523 30.676ZM28.5103 22.461L34.5854 23.6132C34.5706 23.6912 34.6169 23.4325 35.5971 22.1206C35.9155 21.6945 36.6122 20.7921 37.1217 19.895C37.5335 19.17 38.7674 16.9006 38.0601 14.0713L32.0613 15.571L26.0626 17.0707C25.789 15.976 25.9309 15.0715 26.0678 14.5618C26.1969 14.0819 26.3608 13.801 26.3683 13.7877C26.3851 13.7581 26.3562 13.812 26.2214 14.0009C26.0839 14.1935 25.9317 14.3955 25.6901 14.7189C25.2642 15.2889 24.601 16.1782 24.0085 17.2044C23.4076 18.2452 22.7528 19.6345 22.4353 21.3088L28.5103 22.461ZM32.0613 15.571L38.0485 14.0259C37.708 12.7065 37.019 11.5417 36.0689 10.6257C35.1753 9.76432 34.2251 9.28872 33.5321 9.01914C32.847 8.75263 32.2256 8.61637 31.8338 8.5413C31.4581 8.46934 31.0539 8.41195 30.9114 8.39042C30.6896 8.35691 30.6758 8.35077 30.7231 8.36184C30.7691 8.37261 31.0791 8.44478 31.4955 8.65444C31.9399 8.87816 32.5896 9.3013 33.1631 10.0456C33.7595 10.8196 34.0568 11.6604 34.1579 12.3884L28.0333 13.239L21.9088 14.0896C22.0762 15.2946 22.5358 16.5147 23.3671 17.5937C24.1756 18.6429 25.133 19.2967 25.9343 19.7001C26.7076 20.0895 27.4238 20.2904 27.9019 20.4024C28.3812 20.5147 28.8254 20.5823 29.064 20.6183C29.382 20.6664 29.4407 20.6744 29.507 20.6871C29.5572 20.6967 29.3569 20.6644 29.0486 20.5445C28.7324 20.4214 28.1147 20.1351 27.4859 19.5289C26.8006 18.8682 26.3087 18.0248 26.0742 17.1161L32.0613 15.571ZM28.0333 13.239L34.1587 12.3941C34.2714 13.2112 34.1798 14.0552 33.8939 14.8344C33.6231 15.5724 33.242 16.0814 32.9762 16.3768C32.7174 16.6645 32.504 16.821 32.4456 16.8627C32.3813 16.9086 32.3759 16.906 32.4786 16.8483C32.5806 16.791 32.7164 16.7196 32.9379 16.6065C33.1262 16.5104 33.4305 16.3569 33.7117 16.2082C34.2402 15.9286 35.1743 15.4189 36.0554 14.6733L32.0613 9.953L28.0673 5.23273C28.2594 5.07015 28.319 5.0705 27.93 5.27625C27.8301 5.32908 26.8865 5.80549 26.4236 6.06542C25.8684 6.37719 24.7483 7.03227 23.7828 8.10541C22.651 9.36333 21.5431 11.4384 21.908 14.0839L28.0333 13.239ZM32.0613 9.953L36.0554 14.6733C37.0052 13.8696 37.6425 13.0156 38.0552 12.3913C38.2594 12.0823 38.4282 11.7986 38.5423 11.6045C38.684 11.3636 38.716 11.3061 38.7709 11.2166C38.8114 11.1504 38.7741 11.2178 38.6798 11.3398C38.5829 11.4652 38.3668 11.726 38.0172 12.0109C37.6497 12.3104 37.1505 12.6233 36.5207 12.8415C35.8865 13.0612 35.2756 13.1307 34.7475 13.1111L34.9763 6.932L35.2052 0.752904C33.2589 0.68082 31.5319 1.34288 30.2047 2.42448C29.1112 3.31564 28.4707 4.3567 28.2271 4.7542C27.4366 6.04382 27.7684 5.48564 28.0673 5.23272L32.0613 9.953ZM34.9763 6.932L34.6822 13.1083C33.0712 13.0316 31.8896 12.2509 31.227 11.5463C30.6387 10.9206 30.4501 10.3701 30.4177 10.272C30.3543 10.0803 30.4976 10.4403 30.4044 11.5595L36.5663 12.073L42.7283 12.5865C42.9001 10.5257 42.8049 8.34169 42.1585 6.38778C41.648 4.84454 39.8388 0.973202 35.2705 0.755666L34.9763 6.932ZM36.5663 12.073L30.3987 11.6325C30.307 12.9163 29.8987 14.2492 29.2304 16.0549C28.712 17.4556 27.6059 20.1112 27.343 22.6087L33.4923 23.256L39.6417 23.9033C39.6968 23.3798 39.9687 22.6699 40.8283 20.3473C41.538 18.4298 42.5077 15.6817 42.734 12.5135L36.5663 12.073ZM33.4923 23.256L27.3442 22.5973C27.1183 24.7059 27.261 26.4602 27.3539 27.6615C27.4522 28.9325 27.4807 29.4886 27.4079 30.0835L33.5453 30.835L39.6828 31.5865C39.928 29.5844 39.771 27.835 39.6838 26.7078C39.5912 25.5108 39.5484 24.7741 39.6405 23.9147L33.4923 23.256ZM33.5453 30.835L27.4098 30.0681C27.413 30.042 27.3856 30.2231 27.2296 30.8126C27.1606 31.0736 27.0824 31.3571 26.9895 31.6929C26.8997 32.0175 26.7976 32.3863 26.6963 32.7663C26.3289 34.144 25.772 36.3494 25.772 38.52H31.9553H38.1387C38.1387 38.1466 38.2708 37.3575 38.6454 35.9527C38.7296 35.6371 38.8163 35.3235 38.9087 34.9893C38.998 34.6664 39.0953 34.3146 39.1853 33.9744C39.3474 33.3616 39.5717 32.476 39.6809 31.602L33.5453 30.835ZM31.9553 38.52H25.772C25.772 39.9368 26.0777 41.6535 26.8566 43.2285C27.5402 44.611 29.6103 47.7243 33.7573 47.7243V41.541V35.3577C35.1053 35.3577 36.2021 35.8933 36.9149 36.4859C37.549 37.0132 37.8393 37.5392 37.9419 37.7467C38.1245 38.116 38.1387 38.3222 38.1387 38.52H31.9553ZM33.7573 41.541V47.7243C35.4347 47.7243 36.7193 47.1409 37.3405 46.8234C37.9355 46.5193 38.5461 46.1148 38.6564 46.0447C38.9178 45.8786 38.8592 45.9306 38.6876 46.0051C38.4761 46.097 37.9466 46.2933 37.2023 46.2933V40.11V33.9267C35.7691 33.9267 34.5904 34.3019 33.7611 34.6621C32.9717 35.0049 32.3268 35.4146 32.025 35.6063C31.5722 35.894 31.6429 35.8472 31.7129 35.8114C31.809 35.7623 32.5835 35.3577 33.7573 35.3577V41.541ZM37.2023 40.11V46.2933C35.6296 46.2933 34.5167 45.4785 33.964 44.7876C33.4377 44.1297 33.245 43.425 33.245 42.813H39.4283H45.6117C45.6117 39.3259 43.1056 33.9267 37.2023 33.9267V40.11ZM39.4283 42.813H33.245C33.245 42.1364 33.4954 41.4959 33.8982 41.0483C34.2918 40.6109 34.5273 40.6836 34.0205 40.7903L35.2943 46.841L36.5682 52.8917C39.0824 52.3624 41.3848 51.2161 43.0903 49.3212C44.8048 47.4161 45.6117 45.0796 45.6117 42.813H39.4283ZM35.2943 46.841L33.9876 40.7973C32.8837 41.036 31.5862 41.0569 29.8743 40.9376C28.5422 40.8448 25.9863 40.5517 24.1113 40.5517V46.735V52.9183C25.4694 52.9183 26.544 53.1022 29.0146 53.2744C31.1055 53.4201 33.783 53.494 36.6011 52.8847L35.2943 46.841ZM24.1113 46.735V40.5517C21.151 40.5517 19.0394 41.3261 17.4852 42.082C17.1504 42.2447 16.8411 42.407 16.6384 42.5127C16.4056 42.6341 16.2943 42.691 16.2066 42.7324C16.0514 42.8058 16.2642 42.6851 16.6649 42.6278L17.5393 48.749L18.4138 54.8702C19.742 54.6804 20.7961 54.2417 21.4922 53.9126C21.8303 53.7528 22.147 53.5873 22.3569 53.4779C22.5968 53.3527 22.7446 53.2757 22.8935 53.2033C23.2738 53.0184 23.5207 52.9183 24.1113 52.9183V46.735ZM17.5393 48.749L16.5848 42.6398C16.7936 42.6072 16.8988 42.665 16.2662 42.5586C16.0296 42.5188 15.4413 42.4122 14.8677 42.3492C14.2338 42.2796 13.4054 42.2332 12.4575 42.3385L13.1403 48.484L13.8232 54.6295C13.4935 54.6661 13.2089 54.5847 14.2147 54.7539C14.9999 54.886 16.5891 55.1558 18.4939 54.8582L17.5393 48.749ZM13.1403 48.484L12.6661 42.3189C10.5786 42.4795 9.00688 43.3646 8.71454 43.5089C8.5011 43.6142 8.60552 43.5518 8.80398 43.4899C9.05601 43.4114 9.35134 43.3607 9.64235 43.3607V49.544V55.7273C11.8799 55.7273 13.4652 54.955 14.1874 54.5986C14.9153 54.2394 14.3241 54.5945 13.6146 54.6491L13.1403 48.484ZM9.64235 49.544V43.3607C10.326 43.3607 11.283 43.6129 12.1098 44.4021C12.944 45.1985 13.3347 46.2539 13.3347 47.212H7.15135H0.968012C0.968012 52.2199 5.01761 55.7273 9.64235 55.7273V49.544ZM7.15135 47.212H13.3347C13.3347 47.8219 13.1606 48.5845 12.6937 49.3024C12.2532 49.9799 11.7324 50.3425 11.4306 50.5071C11.1444 50.6632 10.9841 50.6835 11.0488 50.6708C11.1005 50.6606 11.2496 50.6393 11.4973 50.6393V44.456V38.2727C9.84853 38.2727 7.58903 38.5158 5.50882 39.6504C3.07599 40.9774 0.968012 43.5645 0.968012 47.212H7.15135ZM11.4973 44.456V50.6393C13.6451 50.6393 16.4873 50.169 18.7513 47.9985C21.0697 45.7757 21.6027 42.9114 21.6027 40.746H15.4193H9.23601C9.23601 41.0716 9.15953 40.0623 10.1927 39.0718C11.1714 38.1335 12.0526 38.2727 11.4973 38.2727V44.456ZM15.4193 40.746H21.6027C21.6027 38.9155 21.3323 37.0336 21.1464 35.6951C20.9313 34.1465 20.8077 33.1839 20.8077 32.425H14.6243H8.44101C8.44101 34.2101 8.71489 36.083 8.8973 37.3964C9.1089 38.9199 9.23601 39.9265 9.23601 40.746H15.4193ZM14.6243 32.425H20.8077C20.8077 32.0555 20.8596 31.8323 21.2344 31.1616C21.3571 30.942 21.4689 30.7539 21.6539 30.436C21.8171 30.1554 22.0326 29.7811 22.2439 29.3714C22.6716 28.5422 23.1978 27.3546 23.4339 25.8705L17.3273 24.899L11.2208 23.9275C11.2714 23.6094 11.367 23.4818 11.2531 23.7026C11.0116 24.1707 10.9957 24.1327 10.439 25.1289C9.55507 26.7107 8.44101 29.0845 8.44101 32.425H14.6243ZM17.3273 24.899L23.4318 25.8836C23.7323 24.0203 23.4905 22.481 23.3371 21.6117C23.2405 21.0641 23.2234 21.0116 23.1913 20.7936C23.1739 20.6754 23.1955 20.7654 23.1877 20.9591L17.0093 20.712L10.831 20.4649C10.7967 21.3211 10.8779 22.0603 10.9565 22.5947C11.0205 23.0293 11.136 23.6326 11.1586 23.7608C11.2437 24.243 11.1874 24.1347 11.2229 23.9144L17.3273 24.899ZM17.0093 20.712L23.1895 20.9114C23.1672 21.6024 22.9743 21.9692 23.0713 21.7295C23.1883 21.4406 23.2376 21.3729 23.5666 20.6537C23.7535 20.2451 24.262 19.1498 24.4648 17.8753C24.6961 16.4221 24.6656 13.5912 22.2303 11.4265L18.1223 16.048L14.0144 20.6695C13.1679 19.917 12.6076 18.9421 12.3537 17.9313C12.124 17.0171 12.1955 16.286 12.2519 15.9316C12.3093 15.5706 12.3927 15.349 12.3971 15.3371C12.4058 15.3133 12.3922 15.353 12.3204 15.5101C12.2298 15.708 12.1823 15.8033 12.0332 16.1227C11.915 16.3761 11.7595 16.7155 11.6082 17.0892C11.3425 17.7456 10.878 19.0001 10.8292 20.5126L17.0093 20.712ZM18.1223 16.048L22.3413 11.5276C21.3999 10.6489 20.1659 9.99055 18.726 9.7735C17.3777 9.57026 16.2481 9.8137 15.5145 10.055C14.2653 10.4659 13.2646 11.2019 13.0808 11.3298C12.8438 11.4946 12.7946 11.5316 12.6667 11.6183C12.5754 11.6801 12.5552 11.6901 12.5772 11.6777C12.5966 11.6667 12.9984 11.4337 13.6741 11.3465L14.4653 17.479L15.2566 23.6115C16.7538 23.4183 17.9241 22.8606 18.659 22.4455C19.3415 22.0601 19.9993 21.5816 20.1429 21.4817C20.275 21.3898 20.2663 21.3998 20.2001 21.439C20.1458 21.4712 19.8473 21.6483 19.3787 21.8025C18.8968 21.961 18.0058 22.1713 16.8827 22.002C15.668 21.8189 14.6461 21.2616 13.9033 20.5684L18.1223 16.048ZM14.4653 17.479L13.5909 11.3578C14.3747 11.2458 15.4139 11.3537 16.4224 11.9466C17.4046 12.524 18.0332 13.3717 18.3562 14.191C18.9917 15.8031 18.5046 17.2395 17.851 18.0293L13.0873 14.087L8.32374 10.1447C6.39813 12.4715 5.67247 15.7364 6.85127 18.7265C8.15454 22.0324 11.5277 24.1448 15.3398 23.6002L14.4653 17.479ZM13.0873 14.087L17.9157 17.9497C17.5129 18.4532 17.1146 18.6803 17.061 18.7102C17.0381 18.723 17.0616 18.7085 17.185 18.6521C17.3675 18.5688 17.416 18.5504 17.7339 18.4085C18.6473 18.0009 20.9816 16.9771 22.597 14.4387L17.3803 11.119L12.1637 7.79932C12.666 7.00993 13.3839 6.80757 12.694 7.11545C12.5089 7.19805 11.717 7.53065 11.0366 7.91022C10.2526 8.34753 9.19176 9.05832 8.25897 10.2243L13.0873 14.087ZM17.3803 11.119L22.5816 14.4627C23.0599 13.7186 23.4293 12.9364 23.6046 12.5733C23.7173 12.3398 23.7853 12.1996 23.8495 12.075C23.9106 11.9563 23.9313 11.9253 23.92 11.9431C23.9096 11.9597 23.8307 12.0841 23.6747 12.2576C23.5159 12.4344 23.2399 12.7036 22.8277 12.9638C22.3995 13.2342 21.8726 13.4635 21.2688 13.5831C20.6684 13.7021 20.1295 13.6853 19.7028 13.6142L20.7193 7.515L21.7359 1.4158C19.7915 1.09173 17.8627 1.47342 16.226 2.50672C14.7843 3.41687 13.9246 4.61029 13.4642 5.33939C13.0018 6.07147 12.6382 6.84398 12.4678 7.1969C12.2257 7.69833 12.1777 7.77736 12.1791 7.77531L17.3803 11.119Z" fill="#1F1F1F" mask="url(#path-1-outside-1_2068_148)"/>
</svg>
