<svg width="855" height="404" viewBox="0 0 855 404" fill="none" xmlns="http://www.w3.org/2000/svg">
<path d="M3.29445 133.346C1.44881 133.346 0.526001 132.423 0.526001 130.578V120.295C0.526001 118.713 1.44881 117.922 3.29445 117.922H93.0708C94.9169 117.922 95.8393 118.713 95.8393 120.295V130.578C95.8393 132.423 94.9169 133.346 93.0708 133.346H3.29445ZM44.0301 233.801C44.0301 242.238 45.8758 249.093 49.567 254.367C53.522 259.377 59.718 261.881 68.1554 261.881C73.1649 261.881 77.9105 261.222 82.3927 259.904C87.1389 258.585 91.3571 257.004 95.0486 255.158C97.4213 254.103 99.1351 254.763 100.19 257.135L103.354 264.254C104.145 265.572 104.409 266.627 104.145 267.418C103.881 267.945 103.354 268.473 102.563 269C97.2897 271.9 91.4894 274.009 85.1611 275.328C78.8335 276.646 72.5053 277.305 66.1776 277.305C53.2583 277.305 43.371 273.878 36.5158 267.023C29.6606 259.904 26.233 249.489 26.233 235.779V76.0002C26.233 74.1542 27.1558 73.2318 29.0014 73.2318H41.6572C43.2391 73.2318 44.0301 74.1542 44.0301 76.0002V233.801ZM150.671 251.994L153.439 265.441H141.574C139.729 265.441 138.411 264.518 137.619 262.672L77.1092 122.273C76.5818 120.691 76.5818 119.636 77.1092 119.108C77.6365 118.318 78.8229 117.922 80.669 117.922H90.9514C92.5335 117.922 93.7199 118.186 94.5112 118.713C95.3019 118.977 95.961 119.9 96.4883 121.481L150.671 251.994ZM117.054 337.025L196.153 121.086C197.207 118.977 198.921 117.922 201.294 117.922H210.786C213.95 117.922 215.004 119.24 213.95 121.877L131.292 342.957C128.128 352.185 124.305 359.172 119.822 363.918C115.604 368.664 110.858 371.828 105.585 373.41C100.575 375.256 95.0386 376.178 88.9743 376.178C85.2828 376.178 80.8006 375.651 75.5271 374.596C70.5175 373.541 65.772 372.223 61.2897 370.641C58.653 369.587 57.5984 367.873 58.1257 365.5L60.8942 357.985C61.6851 355.613 63.5309 354.954 66.431 356.008C69.3311 356.799 72.8909 357.722 77.1092 358.777C81.5913 360.095 85.4145 360.754 88.5786 360.754C92.7975 360.754 96.62 360.095 100.048 358.777C103.476 357.722 106.507 355.481 109.144 352.053C112.044 348.626 114.681 343.616 117.054 337.025ZM205.551 369.059V120.295C205.551 118.713 206.343 117.922 207.925 117.922H220.976C222.558 117.922 223.348 118.713 223.348 120.295V369.059C223.348 371.169 222.558 372.223 220.976 372.223H207.925C206.343 372.223 205.551 371.169 205.551 369.059ZM276.345 261.881C294.274 261.881 306.929 255.949 314.312 244.084C321.694 231.955 325.386 215.74 325.386 195.439C325.386 175.137 321.562 159.053 313.916 147.189C306.534 135.323 294.01 129.392 276.345 129.392C266.853 129.392 257.625 131.369 248.66 135.323C239.696 139.279 230.731 146.134 221.766 155.889L220.58 139.674C228.49 131.237 237.059 124.909 246.287 120.69C255.515 116.208 266.589 113.967 279.508 113.967C293.746 113.967 305.611 117.131 315.103 123.459C324.858 129.787 332.109 139.015 336.855 151.143C341.865 163.272 344.369 178.037 344.369 195.439C344.369 221.014 338.7 241.052 327.363 255.553C316.289 270.055 300.206 277.305 279.113 277.305C268.039 277.305 257.229 275.328 246.682 271.373C236.4 267.155 227.436 261.354 219.789 253.971L221.371 238.152C230.863 246.325 239.828 252.389 248.265 256.344C256.702 260.036 266.062 261.881 276.345 261.881ZM461.317 183.574L458.549 187.924C458.549 167.886 454.33 153.121 445.893 143.629C437.456 133.874 425.459 128.996 409.903 128.996C393.82 128.996 380.637 135.06 370.354 147.189C360.335 159.317 355.325 175.268 355.325 195.043C355.325 215.345 360.862 231.692 371.936 244.084C383.273 256.212 399.752 262.277 421.373 262.277C428.492 262.277 436.401 261.09 445.102 258.717C454.067 256.344 461.713 253.576 468.041 250.412C469.623 249.621 470.809 249.357 471.601 249.621C472.391 249.885 473.05 250.807 473.578 252.389L476.346 259.508C476.873 260.563 477.005 261.486 476.742 262.277C476.742 262.804 476.214 263.463 475.16 264.254C466.986 269 457.626 272.296 447.079 274.141C436.533 276.251 427.437 277.305 419.791 277.305C393.161 277.305 372.595 269.923 358.094 255.158C343.856 240.129 336.738 220.222 336.738 195.439C336.738 170.918 343.329 151.275 356.512 136.51C369.958 121.481 388.02 113.967 410.695 113.967C423.878 113.967 435.215 116.867 444.707 122.668C454.462 128.205 461.976 135.983 467.25 146.002C472.787 156.021 475.555 167.754 475.555 181.201C475.555 182.783 475.555 184.76 475.555 187.133C475.555 189.243 475.423 190.957 475.16 192.275C474.632 194.911 473.578 196.229 471.996 196.229H351.766V183.574H461.317ZM485.631 46.7335C485.631 31.4412 488.663 19.9719 494.727 12.3257C501.055 4.41586 511.601 0.460938 526.367 0.460938C534.54 0.460938 542.054 1.38376 548.909 3.22939C555.765 5.07501 561.829 7.44794 567.102 10.3483C569.475 11.9302 570.135 13.7758 569.08 15.8852L565.916 23.004C565.388 24.3223 564.729 25.2451 563.938 25.7724C563.147 26.2998 562.093 26.0361 560.775 24.9814C556.292 22.8721 551.15 20.8947 545.35 19.0491C539.813 16.9398 533.881 15.8852 527.553 15.8852C517.007 15.8852 510.283 18.7854 507.383 24.5859C504.746 30.1229 503.428 37.5054 503.428 46.7335V270.582C503.428 272.427 502.505 273.35 500.659 273.35H488.399C486.554 273.35 485.631 272.427 485.631 270.582V46.7335ZM462.692 133.346C460.847 133.346 459.924 132.423 459.924 130.578V120.295C459.924 118.713 460.847 117.922 462.692 117.922H548.514C550.36 117.922 551.283 118.713 551.283 120.295V130.578C551.283 132.423 550.36 133.346 548.514 133.346H462.692ZM660.628 270.186L653.513 275.328C652.19 276.119 650.873 276.382 649.557 276.119C648.24 275.856 646.917 275.064 645.6 273.746L631.364 254.367L630.179 250.807V169.731C630.179 155.23 627.277 144.948 621.476 138.883C615.939 132.819 606.184 129.787 592.21 129.787C582.718 129.787 573.622 131.105 564.921 133.742C556.484 136.115 548.969 139.147 542.378 142.838C541.06 143.629 540.005 143.893 539.214 143.629C538.687 143.101 538.159 142.179 537.632 140.86L534.468 133.742C533.15 131.633 533.677 129.919 536.05 128.6C544.487 124.382 553.451 120.954 562.943 118.318C572.699 115.418 583.245 113.967 594.583 113.967C607.238 113.967 617.389 115.944 625.036 119.9C632.943 123.855 638.747 129.787 642.436 137.697C646.13 145.343 647.971 154.967 647.971 166.568V240.129C647.971 243.557 648.24 246.193 648.764 248.039C649.557 249.621 650.873 251.598 652.721 253.971L661.027 264.649C661.814 265.441 662.213 266.363 662.213 267.418C662.213 268.473 661.683 269.396 660.628 270.186ZM632.55 181.992V194.252H593.396C575.995 194.252 563.998 197.284 557.406 203.348C551.079 209.149 547.915 217.322 547.915 227.869C547.915 238.415 550.947 246.852 557.011 253.181C563.076 259.245 572.04 262.277 583.904 262.277C591.814 262.277 599.592 260.959 607.238 258.322C614.885 255.685 623.981 250.148 634.529 241.711L639.671 253.576C627.807 263.331 617.389 269.659 608.425 272.56C599.724 275.196 590.496 276.515 580.74 276.515C565.712 276.515 553.451 272.427 543.96 264.254C534.468 255.817 529.722 243.82 529.722 228.264C529.722 219.3 531.7 211.39 535.654 204.535C539.609 197.68 545.937 192.275 554.638 188.32C563.602 184.101 575.467 181.992 590.232 181.992H632.55ZM710.499 262.672C722.625 262.672 732.248 260.167 739.369 255.158C746.484 250.148 750.047 242.766 750.047 233.01C750.047 223.518 746.883 216.532 740.555 212.049C734.227 207.303 722.494 202.953 705.356 198.998C686.372 194.779 672.66 189.243 664.223 182.387C656.047 175.268 651.966 165.908 651.966 154.308C651.966 147.189 653.807 140.597 657.501 134.533C661.19 128.469 666.994 123.591 674.901 119.9C683.076 115.944 693.492 113.967 706.143 113.967C716.165 113.967 726.051 115.154 735.806 117.526C745.828 119.636 754.659 122.273 762.304 125.437C763.889 126.227 764.813 126.886 765.075 127.414C765.337 127.941 765.206 128.864 764.676 130.182L761.911 137.301C761.649 138.883 760.987 139.938 759.933 140.465C758.878 140.729 757.561 140.597 755.976 140.07C748.861 136.906 740.948 134.269 732.248 132.16C723.811 129.787 715.111 128.6 706.143 128.6C694.547 128.6 685.71 130.974 679.65 135.719C673.846 140.465 670.944 146.53 670.944 153.912C670.944 161.294 673.977 167.227 680.043 171.709C686.372 176.191 697.443 180.41 713.263 184.365C732.772 189.11 746.883 194.911 755.583 201.766C764.545 208.621 769.026 219.036 769.026 233.01C769.026 240.393 767.054 247.511 763.097 254.367C759.14 261.222 752.812 266.759 744.112 270.978C735.412 275.196 723.811 277.305 709.307 277.305C698.235 277.305 687.295 276.119 676.486 273.746C665.939 271.637 656.447 268.737 648.009 265.045C646.954 264.254 646.162 263.595 645.637 263.067C645.369 262.541 645.637 261.486 646.424 259.904L649.195 253.181C649.725 251.862 650.249 250.939 650.774 250.412C651.566 249.885 652.752 250.016 654.337 250.807C661.19 253.708 669.758 256.476 680.043 259.113C690.328 261.486 700.476 262.672 710.499 262.672ZM753.542 133.346C751.695 133.346 750.771 132.423 750.771 130.578V120.295C750.771 118.713 751.695 117.922 753.542 117.922H843.317C845.164 117.922 846.082 118.713 846.082 120.295V130.578C846.082 132.423 845.164 133.346 843.317 133.346H753.542ZM794.276 233.801C794.276 242.238 796.124 249.093 799.812 254.367C803.769 259.377 809.966 261.881 818.397 261.881C823.409 261.881 828.158 261.222 832.639 259.904C837.382 258.585 841.601 257.004 845.295 255.158C847.667 254.103 849.383 254.763 850.438 257.135L853.602 264.254C854.388 265.572 854.657 266.627 854.388 267.418C854.126 267.945 853.602 268.473 852.809 269C847.536 271.9 841.732 274.009 835.404 275.328C829.082 276.646 822.753 277.305 816.425 277.305C803.507 277.305 793.615 273.878 786.762 267.023C779.904 259.904 776.477 249.489 776.477 235.779V76.0002C776.477 74.1542 777.401 73.2318 779.248 73.2318H791.905C793.484 73.2318 794.276 74.1542 794.276 76.0002V233.801Z" fill="#E22026"/>
<rect x="255" y="319" width="599" height="9" fill="#E22026"/>
<rect x="255" y="339" width="599" height="9" fill="#E22026"/>
<rect x="255" y="359" width="599" height="9" fill="#E22026"/>
</svg>
