<svg width="256" height="256" viewBox="0 0 256 256" fill="none" xmlns="http://www.w3.org/2000/svg">
<rect width="256" height="256" rx="128" fill="#E22026"/>
<path d="M86.884 127.828C85.8973 127.828 85.404 127.384 85.404 126.496V120.428C85.404 119.441 85.8973 118.948 86.884 118.948H123.144C124.131 118.948 124.624 119.441 124.624 120.428V126.496C124.624 127.384 124.131 127.828 123.144 127.828H86.884ZM105.828 160.832C105.828 163.792 106.469 166.111 107.752 167.788C109.035 169.465 111.008 170.304 113.672 170.304C115.448 170.304 117.125 170.107 118.704 169.712C120.283 169.219 121.713 168.676 122.996 168.084C124.081 167.492 124.871 167.788 125.364 168.972L127.288 174.004C127.584 174.497 127.683 174.941 127.584 175.336C127.485 175.632 127.189 175.928 126.696 176.224C124.723 177.309 122.453 178.099 119.888 178.592C117.421 179.184 114.856 179.48 112.192 179.48C106.469 179.48 102.177 178.049 99.316 175.188C96.4547 172.228 95.024 167.739 95.024 161.72V103.112C95.024 102.125 95.5173 101.632 96.504 101.632H104.348C105.335 101.632 105.828 102.125 105.828 103.112V160.832ZM143.735 95.416C143.735 88.904 145.116 84.02 147.879 80.764C150.641 77.508 155.032 75.88 161.051 75.88C164.307 75.88 167.316 76.2747 170.079 77.064C172.94 77.7547 175.407 78.692 177.479 79.876C178.564 80.5667 178.86 81.4053 178.367 82.392L176.147 87.276C175.851 87.868 175.505 88.2627 175.111 88.46C174.815 88.6573 174.371 88.5587 173.779 88.164C172.2 87.3747 170.424 86.684 168.451 86.092C166.576 85.4013 164.553 85.056 162.383 85.056C159.028 85.056 156.857 85.9933 155.871 87.868C154.983 89.644 154.539 92.1107 154.539 95.268V176.52C154.539 177.507 154.045 178 153.059 178H145.215C144.228 178 143.735 177.507 143.735 176.52V95.416ZM135.595 127.828C134.608 127.828 134.115 127.384 134.115 126.496V120.428C134.115 119.441 134.608 118.948 135.595 118.948H170.375C171.361 118.948 171.855 119.441 171.855 120.428V126.496C171.855 127.384 171.361 127.828 170.375 127.828H135.595Z" fill="white"/>
</svg>
